<svg width="174" height="56" viewBox="0 0 174 56" fill="none" xmlns="http://www.w3.org/2000/svg">
<path fill-rule="evenodd" clip-rule="evenodd" d="M165.396 48.0909L173.171 51.5071C172.576 52.6598 171.71 53.6582 170.645 54.4208C169.58 55.1834 168.345 55.6885 167.043 55.8948C165.74 56.1012 164.406 56.003 163.149 55.6082C161.893 55.2134 160.749 54.5333 159.813 53.6233C158.876 52.7134 158.173 51.5995 157.76 50.3726C157.347 49.1456 157.237 47.8405 157.438 46.5639C157.639 45.2873 158.146 44.0753 158.917 43.027C159.688 41.9786 160.701 41.1237 161.874 40.5321L165.396 48.0909Z" fill="#FFBC03"/>
<path fill-rule="evenodd" clip-rule="evenodd" d="M165.707 40.4091C166.727 40.4079 167.737 40.6096 168.675 41.002L165.703 47.3651L162.737 41.0023C163.675 40.6099 164.686 40.4081 165.707 40.4091Z" fill="#E03BBC"/>
<path fill-rule="evenodd" clip-rule="evenodd" d="M172.463 47.8104C172.464 48.6783 172.29 49.5378 171.95 50.3396L166.184 47.8011L168.853 41.9576C169.943 42.5186 170.855 43.3603 171.491 44.3918C172.127 45.4234 172.464 46.6055 172.463 47.8104Z" fill="#00B8F0"/>
<path fill-rule="evenodd" clip-rule="evenodd" d="M7.42228 3.44953C5.16686 3.44953 4.03931 4.78996 4.03931 6.26846C4.03931 8.02425 6.24287 8.43198 8.46696 8.83302C11.568 9.38742 15.3463 9.95519 15.3463 14.6371C15.3463 18.5491 12.2258 20.9959 7.65247 20.9959C3.48474 20.9959 0.531466 18.9064 0.00096924 15.5872H4.01572C4.4606 16.7015 5.70769 17.4542 7.65247 17.4542C10.1271 17.4537 11.3078 16.3978 11.3078 14.7962C11.3078 13.0404 9.43797 12.7441 7.21389 12.3444C4.11281 11.7896 0 11.0468 0 6.36487C0 2.6379 3.03695 0 7.3911 0C11.1388 0 13.8031 2.05216 14.4696 5.09221H10.5437C10.0702 4.13438 9.02411 3.44953 7.42228 3.44953ZM142.155 55.9984V52.2882C141.126 54.2143 139.254 55.9984 135.841 55.9984C133.509 55.9956 131.231 55.3122 129.293 54.0344C127.356 52.7567 125.847 50.942 124.956 48.8197C124.066 46.6975 123.834 44.363 124.291 42.1112C124.748 39.8594 125.872 37.7915 127.522 36.1688C129.171 34.5461 131.273 33.4415 133.56 32.9946C135.847 32.5476 138.217 32.7784 140.371 33.6578C142.525 34.5372 144.366 36.0257 145.661 37.9351C146.956 39.8445 147.648 42.0892 147.648 44.3854V55.9984H142.155ZM135.839 38.1813C135.012 38.1818 134.193 38.3428 133.428 38.6551C132.664 38.9674 131.97 39.4248 131.385 40.0013C130.205 41.1656 129.542 42.7441 129.543 44.3895C129.544 46.035 130.209 47.6126 131.391 48.7753C132.573 49.9381 134.176 50.5907 135.847 50.5896C139.328 50.5896 142.155 48.786 142.155 44.066C142.155 40.6395 139.319 38.1813 135.84 38.1813H135.839ZM126.167 32.7764C126.167 32.7764 120.25 32.7725 118.868 32.7725C113.128 32.7725 109.363 35.8644 109.363 42.2722V55.9984H114.855V42.4857C114.855 39.3995 116.574 38.1813 118.918 38.1813H121.791L126.167 32.7764ZM103.007 25.1341L97.7755 30.5429H93.3078L97.5868 25.1341H103.007H103.007ZM84.1623 45.1809C84.1625 46.6014 84.4467 48.0081 84.9989 49.3205C85.551 50.6329 86.3602 51.8253 87.3804 52.8298C88.4005 53.8342 89.6115 54.6309 90.9443 55.1744C92.277 55.7179 93.7055 55.9976 95.148 55.9975C96.5905 55.9973 98.0189 55.7174 99.3516 55.1737C100.684 54.6299 101.895 53.833 102.915 52.8284C103.935 51.8238 104.744 50.6312 105.296 49.3187C105.848 48.0062 106.132 46.5995 106.132 45.179V32.7725H100.639V45.1783C100.639 46.6128 100.061 47.9886 99.0307 49.0029C98.0007 50.0172 96.6037 50.5871 95.147 50.5871C93.6904 50.5871 92.2934 50.0172 91.2634 49.0029C90.2333 47.9886 89.6547 46.6128 89.6547 45.1783C89.6547 42.1912 89.6482 32.768 89.6482 32.768L84.1623 32.7725V45.1809ZM74.1469 46.2876C74.1469 49.3739 75.8496 50.5896 78.1768 50.5896C78.8055 50.5896 80.9789 50.592 80.9789 50.592L85.3288 55.9984H78.08C72.3807 55.9984 68.6545 52.9169 68.6545 46.5094V25.1365H74.1469V32.7725H80.9315V38.1813H74.1469V46.287V46.2876ZM67.7765 55.9984H60.0331L50.7236 47.1535V55.9984H45.2312V25.1365H50.7236V41.5708L59.0681 32.7699L65.8598 32.7725L55.0044 44.0647L67.7765 55.9984ZM42.0004 55.9984H36.508V52.3047C35.4785 54.2247 33.6092 55.9984 30.206 55.9984C27.8739 55.9981 25.5943 55.3167 23.6553 54.0405C21.7164 52.7644 20.2052 50.9507 19.3129 48.8288C18.4206 46.7069 18.1872 44.3721 18.6422 42.1196C19.0972 39.8671 20.2202 37.7981 21.8692 36.1741C23.5183 34.55 25.6192 33.444 27.9065 32.9958C30.1938 32.5476 32.5647 32.7773 34.7194 33.6559C36.8741 34.5345 38.7159 36.0226 40.0119 37.932C41.3079 39.8413 41.9999 42.0863 42.0004 44.3829C42.0004 44.3839 42.0004 44.3847 42.0004 44.3854V55.9984ZM30.208 38.1813C28.5371 38.1809 26.9345 38.8342 25.7528 39.9975C24.571 41.1608 23.907 42.7387 23.9066 44.3842C23.9063 46.0296 24.5697 47.6078 25.751 48.7716C26.9322 49.9353 28.5345 50.5893 30.2054 50.5896C33.6854 50.5896 36.508 48.7847 36.508 44.0647C36.508 40.6383 33.688 38.1813 30.208 38.1813ZM16.4963 37.5489L14.8617 42.9537H6.13852V55.9984H0V25.1365H21.6464V30.8635H6.13852V37.5449L16.4963 37.5489ZM80.2884 5.08967C78.6953 5.08855 75.9517 5.09221 75.0014 5.09221C71.0542 5.09221 68.6545 7.15328 68.6545 11.5401V21.0004H72.2084V11.5387C72.2084 9.42529 73.3839 8.59201 74.9956 8.59201C75.4317 8.59201 76.4019 8.59201 77.3092 8.59201L80.2884 5.08967ZM59.0631 14.6322V14.6371H54.7373C54.9884 15.2907 55.3927 15.8766 55.9174 16.3471C56.4421 16.8176 57.0722 17.1593 57.7564 17.3444C58.4406 17.5295 59.1596 17.5528 59.8547 17.4123C60.5498 17.2718 61.2013 16.9716 61.7562 16.5361H66.2228C65.3242 18.3525 63.7568 19.7636 61.8394 20.4825C59.9219 21.2014 57.7984 21.174 55.9007 20.4059C54.003 19.6379 52.4736 18.1869 51.6236 16.3479C50.7736 14.509 50.6668 12.4202 51.3249 10.5065C51.983 8.59278 53.3566 6.99776 55.1663 6.04585C56.9761 5.09394 59.0861 4.85661 61.0672 5.38214C63.0483 5.90767 64.7517 7.15659 65.831 8.8749C66.9104 10.5932 67.2846 12.6519 66.8775 14.6322H59.0631ZM58.9416 8.59456C58.0301 8.59456 57.1401 8.86765 56.3899 9.37754C55.6398 9.88743 55.0648 10.61 54.7415 11.4493H63.1767C62.8444 10.6091 62.2624 9.8871 61.5068 9.37779C60.7512 8.86848 59.8572 8.59551 58.9416 8.59456ZM41.225 21.0004C38.8943 21.0004 37.6971 20.0195 36.9927 18.685V25.1365L33.4388 25.1332V12.6782C33.4388 12.6782 33.505 5.09221 41.2174 5.09221C42.2778 5.08573 43.329 5.28685 44.3098 5.68389C45.2906 6.08093 46.1814 6.66597 46.9307 7.40501C47.6799 8.14405 48.2725 9.02236 48.674 9.98889C49.0756 10.9554 49.278 11.9909 49.2697 13.0352C49.2794 14.0802 49.0782 15.1167 48.6779 16.0846C48.2776 17.0525 47.6861 17.9325 46.9377 18.6734C46.1893 19.4144 45.299 20.0017 44.3183 20.4011C43.3377 20.8006 42.2862 21.0043 41.225 21.0004ZM41.3504 8.59201C38.9355 8.59201 36.9872 10.3139 36.9872 12.7281C36.9872 16.0539 38.9447 17.503 41.3597 17.503C43.7747 17.503 45.7158 15.36 45.7158 12.9455C45.7206 12.377 45.6115 11.8133 45.3945 11.2865C45.1775 10.7598 44.8571 10.2804 44.4515 9.87592C44.046 9.47143 43.5633 9.1498 43.0312 8.92947C42.4991 8.70914 41.9281 8.59447 41.3508 8.59201H41.3504ZM16.9617 13.4892C16.9617 17.6438 20.1838 21.0004 24.3961 21.0004C28.6084 21.0004 31.8234 17.6489 31.8234 13.4941V5.09221H28.2695V13.7372C28.2695 15.8143 26.4879 17.5006 24.3817 17.5006C23.3651 17.504 22.3883 17.1116 21.6641 16.4089C20.9399 15.7062 20.5271 14.7501 20.5156 13.749V5.09221H16.9617V13.4892Z" fill="#003A7F"/>
</svg>
