<svg width="38" height="38" viewBox="0 0 38 38" fill="none" xmlns="http://www.w3.org/2000/svg">
<circle cx="19" cy="19" r="19" fill="#F2F2F4"/>
<path d="M24.9605 25.7059V24.2157C24.9605 23.4252 24.6465 22.6672 24.0876 22.1082C23.5286 21.5493 22.7706 21.2353 21.9801 21.2353H16.0193C15.2289 21.2353 14.4708 21.5493 13.9119 22.1082C13.3529 22.6672 13.0389 23.4252 13.0389 24.2157V25.7059" stroke="#0A7EC7" stroke-linecap="round" stroke-linejoin="round"/>
<path d="M18.9998 18.2549C20.6458 18.2549 21.9802 16.9205 21.9802 15.2745C21.9802 13.6285 20.6458 12.2941 18.9998 12.2941C17.3538 12.2941 16.0194 13.6285 16.0194 15.2745C16.0194 16.9205 17.3538 18.2549 18.9998 18.2549Z" stroke="#0A7EC7" stroke-linecap="round" stroke-linejoin="round"/>
</svg>
